<?xml version="1.0" encoding="utf-8"?>
<!-- Generator: Adobe Illustrator 21.0.0, SVG Export Plug-In . SVG Version: 6.00 Build 0)  -->
<svg version="1.1" id="Layer_1" xmlns="http://www.w3.org/2000/svg" xmlns:xlink="http://www.w3.org/1999/xlink" x="0px" y="0px"
	 viewBox="0 0 55 55" style="enable-background:new 0 0 55 55;" xml:space="preserve">
<style type="text/css">
	.st0{fill:#E50914;}
	.st1{fill:url(#SVGID_1_);}
	.st2{fill:url(#SVGID_2_);}
</style>
<g transform="rotate(0 50 50)">
	<path class="st0" d="M27.5,8L27.5,8c1.2,0,2.3,1.6,2.3,3.6v1.8c0,2-1,3.6-2.3,3.6l0,0c-1.2,0-2.3-1.6-2.3-3.6v-1.8
		C25.3,9.6,26.3,8,27.5,8z	">
<animate  accumulate="none" additive="replace" attributeName="opacity" begin="-0.9166666666666666s" calcMode="linear" dur="1s" fill="remove" repeatCount="indefinite" restart="always" times="0;1" values="1;0">
			</animate>
	</path>
</g>
<g transform="rotate(30 50 50)">
	<path class="st0" d="M19.3,22.3L19.3,22.3c1.2,0,2.3,1.6,2.3,3.6v1.8c0,2-1,3.6-2.3,3.6l0,0c-1.2,0-2.3-1.6-2.3-3.6v-1.8
		C17,23.9,18,22.3,19.3,22.3z	">
<animate  accumulate="none" additive="replace" attributeName="opacity" begin="-0.8333333333333334s" calcMode="linear" dur="1s" fill="remove" repeatCount="indefinite" restart="always" times="0;1" values="1;0">
			</animate>
	</path>
</g>
<g transform="rotate(60 50 50)">
	<path class="st0" d="M19.3,38.7L19.3,38.7c1.2,0,2.3,1.6,2.3,3.6v1.8c0,2-1,3.6-2.3,3.6l0,0c-1.2,0-2.3-1.6-2.3-3.6l0-1.8
		C17,40.3,18,38.7,19.3,38.7z	">
<animate  accumulate="none" additive="replace" attributeName="opacity" begin="-0.75s" calcMode="linear" dur="1s" fill="remove" repeatCount="indefinite" restart="always" times="0;1" values="1;0">
			</animate>
	</path>
</g>
<g transform="rotate(90 50 50)">
	<path class="st0" d="M27.5,53L27.5,53c1.2,0,2.3,1.6,2.3,3.6v1.8c0,2-1,3.6-2.3,3.6l0,0c-1.2,0-2.3-1.6-2.3-3.6v-1.8
		C25.3,54.6,26.3,53,27.5,53z	">
<animate  accumulate="none" additive="replace" attributeName="opacity" begin="-0.6666666666666666s" calcMode="linear" dur="1s" fill="remove" repeatCount="indefinite" restart="always" times="0;1" values="1;0">
			</animate>
	</path>
</g>
<g transform="rotate(120 50 50)">
	<path class="st0" d="M41.8,61.2L41.8,61.2c1.2,0,2.3,1.6,2.3,3.6v1.8c0,2-1,3.6-2.3,3.6l0,0c-1.2,0-2.3-1.6-2.3-3.6v-1.8
		C39.5,62.8,40.5,61.2,41.8,61.2z	">
<animate  accumulate="none" additive="replace" attributeName="opacity" begin="-0.5833333333333334s" calcMode="linear" dur="1s" fill="remove" repeatCount="indefinite" restart="always" times="0;1" values="1;0">
			</animate>
	</path>
</g>
<g transform="rotate(150 50 50)">
	<path class="st0" d="M58.2,61.2L58.2,61.2c1.2,0,2.3,1.6,2.3,3.6v1.8c0,2-1,3.6-2.3,3.6l0,0c-1.2,0-2.3-1.6-2.3-3.6v-1.8
		C56,62.8,57,61.2,58.2,61.2z	">
<animate  accumulate="none" additive="replace" attributeName="opacity" begin="-0.5s" calcMode="linear" dur="1s" fill="remove" repeatCount="indefinite" restart="always" times="0;1" values="1;0">
			</animate>
	</path>
</g>
<g transform="rotate(180 50 50)">
	<path class="st0" d="M72.5,53L72.5,53c1.2,0,2.3,1.6,2.3,3.6v1.8c0,2-1,3.6-2.3,3.6l0,0c-1.2,0-2.3-1.6-2.3-3.6v-1.8
		C70.3,54.6,71.3,53,72.5,53z	">
<animate  accumulate="none" additive="replace" attributeName="opacity" begin="-0.4166666666666667s" calcMode="linear" dur="1s" fill="remove" repeatCount="indefinite" restart="always" times="0;1" values="1;0">
			</animate>
	</path>
</g>
<g transform="rotate(210 50 50)">
	<path class="st0" d="M80.7,38.7L80.7,38.7c1.2,0,2.3,1.6,2.3,3.6v1.8c0,2-1,3.6-2.3,3.6l0,0c-1.2,0-2.3-1.6-2.3-3.6v-1.8
		C78.5,40.3,79.5,38.7,80.7,38.7z	">
<animate  accumulate="none" additive="replace" attributeName="opacity" begin="-0.3333333333333333s" calcMode="linear" dur="1s" fill="remove" repeatCount="indefinite" restart="always" times="0;1" values="1;0">
			</animate>
	</path>
</g>
<g transform="rotate(240 50 50)">
	<path class="st0" d="M80.7,22.3L80.7,22.3c1.2,0,2.3,1.6,2.3,3.6v1.8c0,2-1,3.6-2.3,3.6l0,0c-1.2,0-2.3-1.6-2.3-3.6v-1.8
		C78.5,23.9,79.5,22.3,80.7,22.3z	">
<animate  accumulate="none" additive="replace" attributeName="opacity" begin="-0.25s" calcMode="linear" dur="1s" fill="remove" repeatCount="indefinite" restart="always" times="0;1" values="1;0">
			</animate>
	</path>
</g>
<g transform="rotate(270 50 50)">
	<path class="st0" d="M72.5,8L72.5,8c1.2,0,2.3,1.6,2.3,3.6v1.8c0,2-1,3.6-2.3,3.6l0,0c-1.2,0-2.3-1.6-2.3-3.6v-1.8
		C70.3,9.6,71.3,8,72.5,8z	">
<animate  accumulate="none" additive="replace" attributeName="opacity" begin="-0.16666666666666666s" calcMode="linear" dur="1s" fill="remove" repeatCount="indefinite" restart="always" times="0;1" values="1;0">
			</animate>
	</path>
</g>
<g transform="rotate(300 50 50)">
	<path class="st0" d="M58.2-0.2L58.2-0.2c1.2,0,2.3,1.6,2.3,3.6v1.8c0,2-1,3.6-2.3,3.6l0,0C57,8.8,56,7.2,56,5.2V3.4
		C56,1.4,57-0.2,58.2-0.2z	">
<animate  accumulate="none" additive="replace" attributeName="opacity" begin="-0.08333333333333333s" calcMode="linear" dur="1s" fill="remove" repeatCount="indefinite" restart="always" times="0;1" values="1;0">
			</animate>
	</path>
</g>
<g transform="rotate(330 50 50)">
	<path class="st0" d="M41.8-0.2L41.8-0.2C43-0.2,44,1.4,44,3.4v1.8c0,2-1,3.6-2.3,3.6l0,0c-1.2,0-2.3-1.6-2.3-3.6V3.4
		C39.5,1.4,40.5-0.2,41.8-0.2z	">
<animate  accumulate="none" additive="replace" attributeName="opacity" begin="0s" calcMode="linear" dur="1s" fill="remove" repeatCount="indefinite" restart="always" times="0;1" values="1;0">
			</animate>
	</path>
</g>
<linearGradient id="SVGID_1_" gradientUnits="userSpaceOnUse" x1="25.0041" y1="28.7807" x2="25.724" y2="28.9967" gradientTransform="matrix(1 0 0 -1 0 56)">
	<stop  offset="0" style="stop-color:#B60009"/>
	<stop  offset="1" style="stop-color:#540001"/>
</linearGradient>
<path class="st1" d="M26.2,19.1h-3.2v16.8c0.8-0.2,1.9-0.3,3.2-0.2V19.1z"/>
<linearGradient id="SVGID_2_" gradientUnits="userSpaceOnUse" x1="29.9956" y1="28.3884" x2="28.5557" y2="27.9564" gradientTransform="matrix(1 0 0 -1 0 56)">
	<stop  offset="0" style="stop-color:#B60009"/>
	<stop  offset="1" style="stop-color:#540001"/>
</linearGradient>
<path class="st2" d="M32.1,19.1h-3.2v15.6l3.2,1.2V19.1z"/>
<path class="st0" d="M26.2,19.1h-3.2l5.8,16.6c1.4,0,2.5,0,3.3,0.3L26.2,19.1z"/>
</svg>
